<?xml version="1.0" encoding="utf-8"?>
<!-- Generator: Adobe Illustrator 18.1.1, SVG Export Plug-In . SVG Version: 6.00 Build 0)  -->
<!DOCTYPE svg PUBLIC "-//W3C//DTD SVG 1.1//EN" "http://www.w3.org/Graphics/SVG/1.1/DTD/svg11.dtd">
<svg version="1.1" id="Ebene_1" xmlns="http://www.w3.org/2000/svg" xmlns:xlink="http://www.w3.org/1999/xlink" x="0px" y="0px"
	 viewBox="0 0 841.9 595.3" style="enable-background:new 0 0 841.9 595.3;" xml:space="preserve">
<g>
	<g>
		<path d="M263,471.7c-1.5,1.8-3.3,2.7-5.5,2.7c-2,0-3.7-0.7-5.1-2.1c-1.4-1.4-2.1-3.1-2.1-5.1c0-1.8,0.5-3.2,1.5-4.3l36.4-49
			c1.7-2.3,3.9-4.2,6.7-5.6c2.8-1.4,5.8-2.2,9-2.2c3,0,5.8,0.7,8.5,1.9c2.7,1.3,4.9,3.1,6.6,5.4l36.4,48.7c0.6,0.7,1.1,1.5,1.5,2.3
			c0.4,0.8,0.6,1.8,0.6,2.8c0,2-0.7,3.7-2.1,5.1c-1.4,1.4-3.1,2.1-5.1,2.1c-2.4,0-4.3-0.9-5.7-2.8l-34.9-46.6
			c-0.7-0.8-1.6-1.7-2.6-2.6c-1-0.9-2.1-1.4-3.2-1.4c-1.1,0-2.2,0.5-3.2,1.4c-1,0.9-1.9,1.8-2.5,2.6L263,471.7z M294.6,458.2
			c0-2.6,0.9-4.8,2.7-6.6c1.8-1.8,4-2.7,6.6-2.7c2.6,0,4.8,0.9,6.6,2.7c1.8,1.8,2.7,4,2.7,6.6c0,2.6-0.9,4.8-2.7,6.6
			c-1.8,1.8-4,2.7-6.6,2.7c-2.6,0-4.8-0.9-6.6-2.7C295.5,463,294.6,460.8,294.6,458.2z"/>
		<path d="M383.8,447.6c0.4,2.1,1.3,4.1,2.5,5.9c1.2,1.8,2.9,3.3,5.1,4.6c2.1,1.3,5,1.9,8.5,1.9h59.6c3.4,0,6.2-0.6,8.4-1.9
			c2.2-1.2,3.9-2.8,5.2-4.6c1.2-1.8,2.1-3.8,2.5-5.9c0.4-2.1,0.7-4.1,0.7-5.9v-25.3c0-2,0.7-3.7,2.1-5.1c1.4-1.4,3.1-2.1,5.1-2.1
			c2,0,3.7,0.7,5.1,2.1c1.4,1.4,2.1,3.1,2.1,5.1v25.3c0,3.8-0.6,7.6-1.9,11.5c-1.3,3.8-3.1,7.3-5.5,10.5c-2.4,3.1-5.3,5.7-8.7,7.7
			c-3.4,2-7.2,3-11.5,3h-68.3c-4.1-0.2-7.7-1.3-10.9-3.4c-3.2-2-5.9-4.6-8.2-7.7c-2.2-3.1-4-6.5-5.2-10.3c-1.2-3.8-1.8-7.5-1.8-11.2
			v-25.3c0-2,0.7-3.7,2.1-5.1c1.4-1.4,3.1-2.1,5.1-2.1c2,0,3.7,0.7,5.1,2.1c1.4,1.4,2.1,3.1,2.1,5.1v25.3
			C383.2,443.5,383.4,445.5,383.8,447.6z"/>
		<path d="M627.8,441.7c0,3.7-0.6,7.4-1.8,11.2c-1.2,3.8-2.9,7.2-5.2,10.3c-2.2,3.1-5,5.7-8.2,7.7c-3.2,2-6.8,3.2-10.9,3.4h-88.9
			c-2,0-3.7-0.7-5.1-2.1c-1.4-1.4-2.1-3.1-2.1-5.1v-50.9c0-2,0.7-3.7,2.1-5.1c1.4-1.4,3.1-2.1,5.1-2.1h87.4c4.3,0,8.1,1,11.5,3
			c3.4,2,6.3,4.6,8.7,7.7c2.4,3.1,4.2,6.6,5.5,10.5C627.2,434.1,627.8,437.9,627.8,441.7z M520.1,423.4V460h77
			c3.4,0,6.2-0.6,8.4-1.9c2.2-1.2,3.9-2.8,5.2-4.6c1.2-1.8,2.1-3.8,2.5-5.9c0.5-2.1,0.7-4.1,0.7-5.9s-0.2-3.8-0.7-5.9
			c-0.4-2.1-1.3-4.1-2.5-5.9c-1.3-1.8-3-3.3-5.2-4.6c-2.2-1.2-5-1.9-8.4-1.9H520.1z"/>
		<path d="M655.1,472.3c-1.4,1.4-3.1,2.1-5.1,2.1c-2,0-3.7-0.7-5.1-2.1c-1.4-1.4-2.1-3.1-2.1-5.1v-50.9c0-2,0.7-3.7,2.1-5.1
			c1.4-1.4,3.1-2.1,5.1-2.1c2,0,3.7,0.7,5.1,2.1c1.4,1.4,2.1,3.1,2.1,5.1v50.9C657.2,469.2,656.5,470.9,655.1,472.3z"/>
		<path d="M794.2,441.7c0,3.8-0.6,7.6-1.9,11.5c-1.2,3.8-3.1,7.3-5.5,10.5c-2.4,3.1-5.3,5.7-8.7,7.7c-3.4,2-7.2,3-11.5,3h-68.3
			c-4.1-0.2-7.7-1.3-10.9-3.4c-3.2-2-5.9-4.6-8.2-7.7c-2.2-3.1-4-6.5-5.2-10.3c-1.2-3.8-1.8-7.5-1.8-11.2c0-3.8,0.6-7.6,1.9-11.5
			c1.2-3.8,3.1-7.3,5.5-10.5c2.4-3.1,5.3-5.7,8.7-7.7c3.4-2,7.2-3,11.5-3h68.3c4.1,0.2,7.7,1.3,10.9,3.4c3.2,2,5.9,4.6,8.2,7.7
			c2.2,3.1,4,6.5,5.2,10.3C793.6,434.3,794.2,438,794.2,441.7z M771.8,458.1c2.2-1.2,3.9-2.8,5.2-4.6c1.2-1.8,2.1-3.8,2.5-5.9
			c0.4-2.1,0.7-4.1,0.7-5.9s-0.2-3.8-0.7-5.9c-0.5-2.1-1.3-4.1-2.5-5.9c-1.2-1.8-3-3.3-5.2-4.6c-2.2-1.2-5-1.9-8.4-1.9h-60.5
			c-3.5,0-6.3,0.6-8.5,1.9c-2.2,1.2-3.8,2.8-5.1,4.6c-1.2,1.8-2.1,3.8-2.5,5.9c-0.4,2.1-0.7,4.1-0.7,5.9s0.2,3.8,0.7,5.9
			c0.4,2.1,1.3,4.1,2.5,5.9c1.2,1.8,2.9,3.3,5.1,4.6c2.1,1.3,5,1.9,8.5,1.9h60.5C766.8,460,769.6,459.4,771.8,458.1z"/>
	</g>
	<g>
		<path d="M201.5,353.7c-2.4-1-4.5-2.5-6.3-4.3c-1.8-1.8-3.2-3.9-4.3-6.3c-1-2.4-1.6-5-1.6-7.8c0-2.8,0.5-5.4,1.6-7.8
			c1-2.4,2.5-4.5,4.3-6.3c1.8-1.8,3.9-3.2,6.3-4.3c2.4-1,5-1.6,7.8-1.6h91c2,0,3.7,0.7,5.1,2.1c1.4,1.4,2.1,3.1,2.1,5.1
			c0,2-0.7,3.7-2.1,5.1c-1.4,1.4-3.1,2.1-5.1,2.1H209c-1.5,0-2.8,0.5-4,1.6c-1.1,1-1.7,2.4-1.7,4c0,1.5,0.6,2.8,1.7,3.9
			c1.1,1.1,2.5,1.6,4,1.6h82.9c2.8,0,5.4,0.5,7.9,1.6c2.4,1,4.6,2.5,6.4,4.3c1.8,1.8,3.2,3.9,4.3,6.4c1,2.4,1.6,5.1,1.6,7.9
			s-0.5,5.4-1.6,7.8c-1,2.4-2.5,4.5-4.3,6.3c-1.8,1.8-3.9,3.2-6.4,4.2c-2.4,1-5.1,1.5-7.9,1.5h-90.8c-2,0-3.7-0.7-5.1-2.1
			c-1.4-1.4-2.1-3.1-2.1-5.1c0-2,0.7-3.7,2.1-5.1c1.4-1.4,3.1-2.1,5.1-2.1h91.4c1.5,0,2.8-0.5,3.9-1.6c1.1-1,1.6-2.3,1.6-3.8
			c0-1.6-0.5-2.9-1.6-4c-1.1-1.1-2.4-1.6-3.9-1.6h-83.2C206.5,355.2,203.9,354.7,201.5,353.7z"/>
		<path d="M329,317.5c1.4-1.4,3.1-2.1,5.1-2.1c2,0,3.7,0.7,5.1,2.1c1.4,1.4,2.1,3.1,2.1,5.1V348c0,1.8,0.2,3.8,0.7,5.9
			c0.4,2.1,1.3,4.1,2.5,5.9c1.2,1.8,2.9,3.3,5.1,4.6c2.1,1.3,5,1.9,8.5,1.9h13.7c3.7,0,5.8-0.3,8.1-1.2c2.1-0.8,3.8-2.8,5-4.2
			c0.7-0.8,2.5-4.1,2.8-6.1c0.1-1.1,0.4-2.4,0.4-6.7v-25.5c0-2,0.7-3.7,2.1-5.1c1.4-1.4,3.1-2.1,5.1-2.1c2,0,3.7,0.7,5.1,2.1
			c1.4,1.4,2.1,3.1,2.1,5.1V348c0,1.8,0.2,3.7,0.7,5.8c0.5,2.1,1.2,4.1,2.4,5.9c1.1,1.8,2.7,3.4,4.8,4.6c2,1.3,4.7,1.9,7.9,1.9h14.2
			c3.4,0,6.2-0.6,8.4-1.9c2.2-1.2,3.9-2.8,5.2-4.6c1.2-1.8,2.1-3.8,2.5-5.9c0.5-2.1,0.7-4.1,0.7-5.9v-25.5c0-2,0.7-3.7,2.1-5.1
			c1.4-1.4,3.1-2.1,5.1-2.1c2,0,3.7,0.7,5.1,2.1c1.4,1.4,2.1,3.1,2.1,5.1V348c0,3.8-0.6,7.6-1.9,11.5c-1.2,3.8-3.1,7.3-5.5,10.5
			c-2.4,3.1-5.3,5.7-8.7,7.7c-3.4,2-7.2,3-11.5,3h-83c-4.1,0-7.7-1-10.9-3c-3.2-2-5.9-4.6-8.2-7.7c-2.2-3.1-4-6.7-5.2-10.6
			c-1.2-3.9-1.8-7.7-1.8-11.4v-25.5C326.9,320.6,327.6,318.9,329,317.5z"/>
		<path d="M487.6,378c-1.5,1.8-3.3,2.7-5.5,2.7c-2,0-3.7-0.7-5.1-2.1c-1.4-1.4-2.1-3.1-2.1-5.1c0-1.8,0.5-3.2,1.5-4.3l36.4-49
			c1.7-2.3,3.9-4.2,6.7-5.6c2.8-1.4,5.8-2.2,9-2.2c3,0,5.8,0.7,8.5,1.9c2.7,1.3,4.9,3.1,6.6,5.4l36.4,48.7c0.6,0.7,1.1,1.5,1.5,2.3
			c0.4,0.8,0.6,1.8,0.6,2.8c0,2-0.7,3.7-2.1,5.1c-1.4,1.4-3.1,2.1-5.1,2.1c-2.4,0-4.3-0.9-5.7-2.8l-34.9-46.6
			c-0.7-0.8-1.6-1.7-2.6-2.6c-1-0.9-2.1-1.4-3.2-1.4c-1.1,0-2.2,0.5-3.2,1.4s-1.9,1.8-2.5,2.6L487.6,378z M519.2,364.5
			c0-2.6,0.9-4.8,2.7-6.6c1.8-1.8,4-2.7,6.6-2.7c2.6,0,4.8,0.9,6.6,2.7c1.8,1.8,2.7,4,2.7,6.6c0,2.6-0.9,4.8-2.7,6.6
			c-1.8,1.8-4,2.7-6.6,2.7c-2.6,0-4.8-0.9-6.6-2.7C520.1,369.3,519.2,367.1,519.2,364.5z"/>
		<path d="M698.5,342.1c-0.4-2.1-1.3-4.1-2.5-5.9c-1.2-1.8-3-3.3-5.2-4.6c-2.2-1.2-5-1.9-8.4-1.9h-54.1c-3.5,0-6.3,0.6-8.5,1.9
			c-2.1,1.2-3.8,2.8-5.1,4.6c-1.2,1.8-2.1,3.8-2.5,5.9c-0.4,2.1-0.7,4.1-0.7,5.9v25.5c0,2-0.7,3.7-2.1,5.1c-1.4,1.4-3.1,2.1-5.1,2.1
			s-3.7-0.7-5.1-2.1c-1.4-1.4-2.1-3.1-2.1-5.1V348c0-3.8,0.6-7.6,1.9-11.5c1.2-3.8,3.1-7.3,5.5-10.5c2.4-3.1,5.3-5.7,8.7-7.7
			c3.4-2,7.2-3,11.5-3h62.8c4.1,0.2,7.7,1.3,10.9,3.4c3.2,2,5.9,4.6,8.2,7.7c2.2,3.1,4,6.5,5.2,10.3s1.8,7.5,1.8,11.2v25.5
			c0,2-0.7,3.7-2.1,5.1c-1.4,1.4-3.1,2.1-5.1,2.1c-2,0-3.7-0.7-5.1-2.1c-1.4-1.4-2.1-3.1-2.1-5.1V348
			C699.1,346.2,698.9,344.3,698.5,342.1z"/>
	</g>
	<g>
		<path d="M223.2,474.4c24.9-13.9-74-113.2-87.7-163.4c-14.6-53.4,32.8-87.3,47.6-77.2c21.3,14.6,45.7,19.3,57.1,16.4
			c6.5-1.6,16.2-7.8,16.2-7.8s77.3,33.1,87.6,36.2c10.3,3.1,40.4,14.8,47.6,7.6c6.2-13.9-59.3-45.7-74.3-58.1
			c-15-12.4-19.5-37-19.5-37c-17-47.5-63.4-72.5-112.5-69.2C140.5,125,85,173.8,66.9,218.5c-19.6,42.9-22.8,100.1,1,141"/>
	</g>
</g>
</svg>
