<?xml version="1.0" encoding="UTF-8" standalone="no"?>
<!-- Created with Inkscape (http://www.inkscape.org/) -->

<svg
   xmlns:dc="http://purl.org/dc/elements/1.1/"
   xmlns:cc="http://creativecommons.org/ns#"
   xmlns:rdf="http://www.w3.org/1999/02/22-rdf-syntax-ns#"
   xmlns:svg="http://www.w3.org/2000/svg"
   xmlns="http://www.w3.org/2000/svg"
   xmlns:sodipodi="http://sodipodi.sourceforge.net/DTD/sodipodi-0.dtd"
   xmlns:inkscape="http://www.inkscape.org/namespaces/inkscape"
   version="1.1"
   id="svg169"
   xml:space="preserve"
   width="1122.52"
   height="793.70667"
   viewBox="0 0 1122.52 793.70667"
   sodipodi:docname="swan-audio-logo-final-alt.svg"
   inkscape:version="0.92.0 r"><metadata
     id="metadata175"><rdf:RDF><cc:Work
         rdf:about=""><dc:format>image/svg+xml</dc:format><dc:type
           rdf:resource="http://purl.org/dc/dcmitype/StillImage" /><dc:title></dc:title></cc:Work></rdf:RDF></metadata><defs
     id="defs173"><clipPath
       clipPathUnits="userSpaceOnUse"
       id="clipPath185"><path
         d="M 0,595.28 H 841.89 V 0 H 0 Z"
         id="path183"
         inkscape:connector-curvature="0" /></clipPath></defs><sodipodi:namedview
     pagecolor="#ffffff"
     bordercolor="#666666"
     borderopacity="1"
     objecttolerance="10"
     gridtolerance="10"
     guidetolerance="10"
     inkscape:pageopacity="0"
     inkscape:pageshadow="2"
     inkscape:window-width="1892"
     inkscape:window-height="1022"
     id="namedview171"
     showgrid="false"
     inkscape:zoom="1.0457264"
     inkscape:cx="561.26001"
     inkscape:cy="396.85333"
     inkscape:window-x="12"
     inkscape:window-y="42"
     inkscape:window-maximized="1"
     inkscape:current-layer="g177" /><g
     id="g177"
     inkscape:groupmode="layer"
     inkscape:label="swan-audio-logo-final-pantone200Cred-pantonecoolgray10c (1)"
     transform="matrix(1.3333333,0,0,-1.3333333,0,793.70667)"><g
       id="g179"><g
         id="g181"
         clip-path="url(#clipPath185)"><g
           id="g187"
           transform="translate(293.5726,135.8096)"><path
             d="m 0,0 c 0,2.616 0.907,4.833 2.719,6.646 1.812,1.813 4.026,2.719 6.646,2.719 2.617,0 4.834,-0.906 6.646,-2.719 1.813,-1.813 2.718,-4.03 2.718,-6.646 0,-2.62 -0.905,-4.833 -2.718,-6.648 -1.812,-1.811 -4.029,-2.717 -6.646,-2.717 -2.62,0 -4.834,0.906 -6.646,2.717 C 0.907,-4.833 0,-2.62 0,0 m -31.871,-13.595 c -1.511,-1.813 -3.375,-2.719 -5.589,-2.719 -2.016,0 -3.726,0.705 -5.136,2.114 -1.411,1.41 -2.114,3.123 -2.114,5.136 0,1.814 0.503,3.272 1.51,4.381 l 36.705,49.392 c 1.711,2.315 3.976,4.204 6.797,5.665 2.818,1.459 5.839,2.19 9.063,2.19 3.021,0 5.891,-0.656 8.609,-1.963 2.719,-1.311 4.933,-3.122 6.646,-5.437 L 61.325,-3.927 c 0.605,-0.705 1.107,-1.488 1.51,-2.342 0.402,-0.856 0.605,-1.789 0.605,-2.795 0,-2.013 -0.706,-3.726 -2.115,-5.136 -1.411,-1.409 -3.122,-2.114 -5.136,-2.114 -2.416,0 -4.33,0.955 -5.739,2.87 L 15.256,33.531 c -0.706,0.805 -1.586,1.686 -2.644,2.643 -1.057,0.957 -2.14,1.436 -3.247,1.436 -1.11,0 -2.19,-0.479 -3.248,-1.436 C 5.06,35.217 4.23,34.336 3.625,33.531 Z"
             style="fill:#c20430;fill-opacity:1;fill-rule:nonzero;stroke:none"
             id="path189"
             inkscape:connector-curvature="0" /></g><g
           id="g191"
           transform="translate(383.5215,146.4568)"><path
             d="m 0,0 c 0.453,-2.165 1.308,-4.153 2.568,-5.966 1.258,-1.811 2.969,-3.347 5.135,-4.605 2.165,-1.262 5.008,-1.889 8.535,-1.889 h 60.117 c 3.422,0 6.242,0.627 8.459,1.889 2.213,1.258 3.951,2.794 5.211,4.605 1.258,1.813 2.114,3.801 2.568,5.966 0.453,2.165 0.679,4.155 0.679,5.968 v 25.527 c 0,2.014 0.704,3.722 2.115,5.136 1.409,1.41 3.119,2.114 5.135,2.114 2.013,0 3.725,-0.704 5.136,-2.114 1.409,-1.414 2.115,-3.122 2.115,-5.136 V 5.968 c 0,-3.829 -0.63,-7.681 -1.888,-11.557 -1.261,-3.876 -3.097,-7.4 -5.513,-10.571 -2.418,-3.172 -5.339,-5.765 -8.762,-7.781 -3.424,-2.014 -7.301,-3.02 -11.63,-3.02 H 11.102 c -4.13,0.201 -7.805,1.334 -11.026,3.399 -3.224,2.063 -5.967,4.656 -8.232,7.779 -2.266,3.12 -4.003,6.592 -5.212,10.422 -1.208,3.824 -1.812,7.602 -1.812,11.329 v 25.527 c 0,2.014 0.703,3.722 2.114,5.136 1.41,1.41 3.121,2.114 5.136,2.114 2.013,0 3.724,-0.704 5.136,-2.114 1.409,-1.414 2.115,-3.122 2.115,-5.136 V 5.968 C -0.679,4.155 -0.453,2.165 0,0"
             style="fill:#c20430;fill-opacity:1;fill-rule:nonzero;stroke:none"
             id="path193"
             inkscape:connector-curvature="0" /></g><g
           id="g195"
           transform="translate(520.8972,170.8529)"><path
             d="m 0,0 v -36.856 h 77.638 c 3.422,0 6.243,0.626 8.458,1.889 2.215,1.257 3.951,2.794 5.212,4.605 1.258,1.813 2.114,3.8 2.567,5.966 0.454,2.165 0.68,4.155 0.68,5.968 0,1.813 -0.226,3.8 -0.68,5.966 -0.453,2.165 -1.309,4.152 -2.567,5.968 -1.261,1.811 -2.997,3.345 -5.212,4.605 C 83.881,-0.631 81.06,0 77.638,0 Z m 108.602,-18.428 c 0,-3.727 -0.603,-7.505 -1.812,-11.33 -1.208,-3.829 -2.945,-7.301 -5.211,-10.421 -2.265,-3.123 -5.011,-5.716 -8.232,-7.779 -3.224,-2.065 -6.898,-3.198 -11.027,-3.399 H -7.25 c -2.016,0 -3.727,0.705 -5.137,2.114 -1.411,1.41 -2.114,3.122 -2.114,5.136 V 7.248 c 0,2.016 0.703,3.725 2.114,5.139 1.41,1.407 3.121,2.114 5.137,2.114 h 88.061 c 4.327,0 8.206,-1.008 11.63,-3.022 3.421,-2.016 6.344,-4.608 8.76,-7.779 2.417,-3.171 4.254,-6.699 5.514,-10.573 1.257,-3.879 1.887,-7.73 1.887,-11.555"
             style="fill:#c20430;fill-opacity:1;fill-rule:nonzero;stroke:none"
             id="path197"
             inkscape:connector-curvature="0" /></g><g
           id="g199"
           transform="translate(656.9903,121.6099)"><path
             d="m 0,0 c -1.412,-1.41 -3.122,-2.114 -5.136,-2.114 -2.014,0 -3.727,0.704 -5.134,2.114 -1.412,1.41 -2.117,3.122 -2.117,5.136 v 51.355 c 0,2.016 0.705,3.725 2.117,5.138 1.407,1.408 3.12,2.115 5.134,2.115 2.014,0 3.724,-0.707 5.136,-2.115 1.409,-1.413 2.114,-3.122 2.114,-5.138 V 5.136 C 2.114,3.122 1.409,1.41 0,0"
             style="fill:#c20430;fill-opacity:1;fill-rule:nonzero;stroke:none"
             id="path201"
             inkscape:connector-curvature="0" /></g><g
           id="g203"
           transform="translate(774.6583,135.8854)"><path
             d="m 0,0 c 2.213,1.258 3.95,2.794 5.21,4.606 1.258,1.813 2.114,3.8 2.569,5.965 0.453,2.166 0.678,4.155 0.678,5.968 0,1.813 -0.225,3.801 -0.678,5.966 -0.455,2.166 -1.311,4.153 -2.569,5.968 -1.26,1.811 -2.997,3.346 -5.21,4.606 -2.217,1.257 -5.038,1.888 -8.459,1.888 h -61.023 c -3.526,0 -6.372,-0.631 -8.535,-1.888 -2.168,-1.26 -3.878,-2.795 -5.136,-4.606 -1.26,-1.815 -2.115,-3.802 -2.567,-5.968 -0.453,-2.165 -0.68,-4.153 -0.68,-5.966 0,-1.813 0.227,-3.802 0.68,-5.968 0.452,-2.165 1.307,-4.152 2.567,-5.965 1.258,-1.812 2.968,-3.348 5.136,-4.606 2.163,-1.262 5.009,-1.889 8.535,-1.889 h 61.023 c 3.421,0 6.242,0.627 8.459,1.889 m 22.505,16.539 c 0,-3.829 -0.631,-7.68 -1.889,-11.557 -1.26,-3.876 -3.095,-7.399 -5.513,-10.571 -2.415,-3.171 -5.339,-5.765 -8.76,-7.781 -3.424,-2.014 -7.302,-3.02 -11.631,-3.02 h -68.878 c -4.13,0.201 -7.805,1.334 -11.026,3.399 -3.224,2.063 -5.966,4.657 -8.231,7.779 -2.266,3.12 -4.004,6.593 -5.212,10.422 -1.209,3.825 -1.814,7.603 -1.814,11.329 0,3.825 0.629,7.677 1.889,11.555 1.258,3.874 3.096,7.402 5.513,10.573 2.418,3.172 5.337,5.764 8.761,7.779 3.423,2.014 7.299,3.022 11.63,3.022 h 68.878 c 4.128,-0.205 7.804,-1.335 11.026,-3.401 3.223,-2.065 5.968,-4.658 8.234,-7.776 2.266,-3.123 4.001,-6.597 5.21,-10.424 1.209,-3.827 1.813,-7.605 1.813,-11.328"
             style="fill:#c20430;fill-opacity:1;fill-rule:nonzero;stroke:none"
             id="path205"
             inkscape:connector-curvature="0" /></g><g
           id="g207"
           transform="translate(199.7363,241.1648)"><path
             d="m 0,0 c -2.417,1.057 -4.532,2.491 -6.344,4.306 -1.813,1.811 -3.248,3.926 -4.305,6.343 -1.057,2.418 -1.586,5.034 -1.586,7.855 0,2.817 0.529,5.437 1.586,7.855 1.057,2.415 2.492,4.532 4.305,6.343 1.812,1.813 3.927,3.249 6.344,4.306 2.416,1.057 5.034,1.586 7.854,1.586 H 99.54 c 2.014,0 3.724,-0.707 5.136,-2.115 1.409,-1.413 2.114,-3.122 2.114,-5.138 0,-2.014 -0.705,-3.724 -2.114,-5.134 -1.412,-1.411 -3.122,-2.114 -5.136,-2.114 H 7.553 c -1.511,0 -2.847,-0.529 -4.004,-1.586 -1.158,-1.057 -1.737,-2.393 -1.737,-4.003 0,-1.512 0.579,-2.821 1.737,-3.927 1.157,-1.109 2.493,-1.662 4.004,-1.662 h 83.529 c 2.818,0 5.461,-0.528 7.929,-1.586 2.467,-1.057 4.608,-2.493 6.42,-4.306 1.812,-1.811 3.247,-3.952 4.305,-6.419 1.058,-2.468 1.586,-5.111 1.586,-7.93 0,-2.819 -0.528,-5.438 -1.586,-7.855 -1.058,-2.417 -2.493,-4.532 -4.305,-6.343 -1.812,-1.813 -3.953,-3.224 -6.42,-4.228 -2.468,-1.008 -5.111,-1.512 -7.929,-1.512 H -0.454 c -2.015,0 -3.726,0.704 -5.135,2.114 -1.411,1.409 -2.115,3.122 -2.115,5.136 0,2.014 0.704,3.725 2.115,5.136 1.409,1.41 3.12,2.114 5.135,2.114 h 92.14 c 1.51,0 2.818,0.529 3.927,1.586 1.107,1.057 1.661,2.342 1.661,3.852 0,1.61 -0.554,2.97 -1.661,4.079 -1.109,1.106 -2.417,1.661 -3.927,1.661 H 7.854 C 5.034,-1.586 2.416,-1.057 0,0"
             style="fill:#c20430;fill-opacity:1;fill-rule:nonzero;stroke:none"
             id="path209"
             inkscape:connector-curvature="0" /></g><g
           id="g211"
           transform="translate(328.2769,277.6443)"><path
             d="m 0,0 c 1.41,1.407 3.12,2.114 5.136,2.114 2.013,0 3.724,-0.707 5.135,-2.114 1.41,-1.414 2.116,-3.122 2.116,-5.138 v -25.677 c 0,-1.813 0.226,-3.802 0.679,-5.968 0.452,-2.165 1.308,-4.152 2.568,-5.966 1.258,-1.811 2.968,-3.347 5.135,-4.605 2.164,-1.262 5.008,-1.889 8.535,-1.889 h 13.774 c 3.711,0 5.803,0.307 8.168,1.245 2.155,0.855 3.812,2.809 5.056,4.259 0.673,0.785 2.566,4.154 2.819,6.141 0.145,1.142 0.392,2.464 0.392,6.783 v 25.677 c 0,2.016 0.703,3.724 2.114,5.138 1.41,1.407 3.121,2.114 5.137,2.114 2.012,0 3.723,-0.707 5.135,-2.114 1.409,-1.414 2.115,-3.122 2.115,-5.138 v -25.677 c 0,-1.813 0.226,-3.776 0.679,-5.89 0.454,-2.114 1.258,-4.105 2.417,-5.968 1.156,-1.864 2.768,-3.423 4.834,-4.681 2.063,-1.262 4.705,-1.889 7.93,-1.889 h 14.349 c 3.423,0 6.243,0.627 8.458,1.889 2.215,1.258 3.951,2.794 5.212,4.605 1.258,1.814 2.115,3.801 2.567,5.966 0.454,2.166 0.681,4.155 0.681,5.968 v 25.677 c 0,2.016 0.702,3.724 2.114,5.138 1.409,1.407 3.12,2.114 5.136,2.114 2.013,0 3.724,-0.707 5.135,-2.114 1.41,-1.414 2.115,-3.122 2.115,-5.138 v -25.677 c 0,-3.829 -0.63,-7.68 -1.889,-11.557 -1.259,-3.876 -3.095,-7.4 -5.513,-10.571 -2.416,-3.171 -5.338,-5.765 -8.76,-7.781 -3.424,-2.014 -7.303,-3.02 -11.63,-3.02 H 24.168 c -4.131,0 -7.805,1.006 -11.027,3.02 -3.223,2.016 -5.966,4.61 -8.231,7.781 -2.266,3.171 -4.003,6.72 -5.212,10.649 -1.208,3.926 -1.812,7.753 -1.812,11.479 v 25.677 c 0,2.016 0.702,3.724 2.114,5.138"
             style="fill:#c20430;fill-opacity:1;fill-rule:nonzero;stroke:none"
             id="path213"
             inkscape:connector-curvature="0" /></g><g
           id="g215"
           transform="translate(519.9557,230.2144)"><path
             d="m 0,0 c 0,2.616 0.907,4.833 2.719,6.646 1.812,1.813 4.026,2.719 6.646,2.719 2.617,0 4.834,-0.906 6.646,-2.719 1.813,-1.813 2.718,-4.03 2.718,-6.646 0,-2.62 -0.905,-4.833 -2.718,-6.648 -1.812,-1.811 -4.029,-2.717 -6.646,-2.717 -2.62,0 -4.834,0.906 -6.646,2.717 C 0.907,-4.833 0,-2.62 0,0 m -31.871,-13.595 c -1.511,-1.813 -3.375,-2.719 -5.589,-2.719 -2.016,0 -3.726,0.705 -5.136,2.114 -1.411,1.41 -2.114,3.123 -2.114,5.136 0,1.814 0.503,3.272 1.51,4.381 l 36.705,49.392 c 1.711,2.315 3.976,4.204 6.797,5.665 2.818,1.459 5.839,2.19 9.063,2.19 3.02,0 5.891,-0.656 8.609,-1.963 2.719,-1.311 4.933,-3.122 6.646,-5.437 L 61.324,-3.927 c 0.605,-0.705 1.109,-1.488 1.512,-2.342 0.402,-0.856 0.605,-1.789 0.605,-2.795 0,-2.013 -0.707,-3.726 -2.117,-5.136 -1.409,-1.409 -3.122,-2.114 -5.134,-2.114 -2.417,0 -4.331,0.955 -5.74,2.87 L 15.256,33.531 c -0.706,0.805 -1.586,1.686 -2.644,2.643 -1.057,0.957 -2.14,1.436 -3.247,1.436 -1.11,0 -2.19,-0.479 -3.248,-1.436 C 5.06,35.217 4.23,34.336 3.625,33.531 Z"
             style="fill:#c20430;fill-opacity:1;fill-rule:nonzero;stroke:none"
             id="path217"
             inkscape:connector-curvature="0" /></g><g
           id="g219"
           transform="translate(700.6832,252.7954)"><path
             d="m 0,0 c -0.453,2.165 -1.309,4.153 -2.567,5.968 -1.26,1.811 -2.997,3.345 -5.212,4.605 -2.215,1.258 -5.036,1.889 -8.457,1.889 h -54.529 c -3.526,0 -6.369,-0.631 -8.535,-1.889 -2.165,-1.26 -3.878,-2.794 -5.136,-4.605 -1.26,-1.815 -2.114,-3.803 -2.567,-5.968 -0.453,-2.165 -0.68,-4.153 -0.68,-5.966 v -25.678 c 0,-2.014 -0.705,-3.727 -2.114,-5.137 -1.412,-1.409 -3.122,-2.114 -5.136,-2.114 -2.014,0 -3.727,0.705 -5.134,2.114 -1.412,1.41 -2.117,3.123 -2.117,5.137 v 25.678 c 0,3.825 0.629,7.677 1.889,11.555 1.258,3.874 3.096,7.402 5.513,10.573 2.418,3.172 5.337,5.763 8.761,7.779 3.423,2.014 7.299,3.022 11.63,3.022 h 63.289 c 4.128,-0.205 7.804,-1.336 11.028,-3.401 3.221,-2.065 5.966,-4.658 8.232,-7.777 2.266,-3.122 4.001,-6.597 5.21,-10.424 1.209,-3.826 1.813,-7.604 1.813,-11.327 v -25.678 c 0,-2.014 -0.705,-3.727 -2.114,-5.137 -1.412,-1.409 -3.123,-2.114 -5.136,-2.114 -2.016,0 -3.727,0.705 -5.137,2.114 -1.411,1.41 -2.114,3.123 -2.114,5.137 V -5.966 C 0.68,-4.153 0.455,-2.165 0,0"
             style="fill:#c20430;fill-opacity:1;fill-rule:nonzero;stroke:none"
             id="path221"
             inkscape:connector-curvature="0" /></g><g
           id="g223"
           transform="translate(221.5469,119.4646)"><path
             d="m 0,0 c 25.055,14.028 -74.58,114.124 -88.384,164.769 -14.671,53.827 33.056,87.979 48.007,77.774 21.508,-14.677 46.044,-19.406 57.569,-16.525 6.564,1.641 16.367,7.884 16.367,7.884 0,0 77.93,-33.364 88.336,-36.486 10.407,-3.122 40.725,-14.968 48.011,-7.682 6.243,14.049 -59.802,46.08 -74.894,58.571 -15.096,12.489 -19.611,37.287 -19.611,37.287 -17.173,47.879 -63.927,73.134 -113.452,69.737 -45.247,-3.103 -101.227,-52.293 -119.468,-97.421 -19.773,-43.196 -22.956,-100.871 0.958,-142.108"
             style="fill:#63656a;fill-opacity:1;fill-rule:nonzero;stroke:none"
             id="path225"
             inkscape:connector-curvature="0" /></g></g></g></g></svg>